<svg id="svg-tdp" version="1.1" xmlns="http://www.w3.org/2000/svg" xmlns:xlink="http://www.w3.org/1999/xlink" viewBox="0 0 700 500" width="700" height="500">
    <defs>
        <pattern id="Pattern-Indirect" width="7" height="7" patternUnits="userSpaceOnUse">
            <rect x="0" y="0" width="10" height="100" fill="#add8e6"></rect>
            <line x1="4" y1="0" x2="4" y2="7" stroke="#4169e1" stroke-width="2"></line>
            <line x1="0" y1="4" x2="7" y2="4" stroke="#4169e1" stroke-width="2"></line>
        </pattern>
    </defs><rect type="rect" x="100" y="300" width="150" height="150" stroke="black" stroke-width="5" fill="none"></rect><path type="path" x="135" y="330" d="M 135 330 l -70 0 l 0 -150" stroke="black" stroke-width="5" fill="none"></path><path type="path" x="210" y="330" d="M 210 330 l 70 0 l 0 -150" stroke="black" stroke-width="5" fill="none"></path><rect type="rect" x="175" y="222" width="41" height="41" fill="url(#Pattern-Indirect)"></rect><rect type="rect" x="175" y="260" width="41" height="41" fill="url(#Pattern-Indirect)"></rect><rect type="rect" x="137" y="260" width="41" height="41" fill="url(#Pattern-Indirect)"></rect><rect type="rect" x="137" y="222" width="41" height="41" fill="url(#Pattern-Indirect)"></rect><rect type="rect" x="135" y="220" width="80" height="80" stroke="black" stroke-width="5" fill="none"></rect><line type="line" x="450" y="450" points="0,0,150,0" stroke="black" stroke-width="5" fill="none" x1="450" y1="450" x2="600" y2="450"></line><path type="path" x="450" y="450" d="M 450 450 a 75 160 0 0 1 150 0" stroke="black" stroke-width="5" fill="none"></path><path type="path" x="490" y="330" d="M 490 330 c 0 0 -80 -5 -70 -150" stroke="black" stroke-width="5" fill="none"></path><path type="path" x="560" y="330" d="M 560 330 c 0 0 80 5 70 -150" stroke="black" stroke-width="5" fill="none"></path><circle type="circle" x="525" y="260" r="40" stroke="black" stroke-width="5" fill="white" cx="525" cy="260"></circle><path type="path" x="565" y="260" d="M 565 260 a 41 41 0 0  0, -41 -41 l 0 41" fill="#4169e1"></path><path type="path" x="565" y="260" d="M 565 260 a 41 41 0 0  1, -41 41 l 0 -41" fill="#4169e1"></path><circle type="circle" x="525" y="260" r="40" stroke="black" stroke-width="5" fill="transparent" cx="525" cy="260"></circle><rect type="rect" x="618.75" y="100" width="32.25" height="80" fill="#4169e1" stroke="transparent" stroke-width="0"></rect><rect type="rect" x="587.5" y="100" width="32.25" height="80" fill="#4169e1" stroke="transparent" stroke-width="0"></rect><rect type="rect" x="556.25" y="100" width="32.25" height="80" fill="#4169e1" stroke="transparent" stroke-width="0"></rect><rect type="rect" x="525" y="100" width="32.25" height="80" fill="#4169e1" stroke="transparent" stroke-width="0"></rect><rect type="rect" x="493.75" y="100" width="32.25" height="80" fill="#4169e1" stroke="transparent" stroke-width="0"></rect><rect type="rect" x="462.5" y="100" width="32.25" height="80" fill="#4169e1" stroke="transparent" stroke-width="0"></rect><rect type="rect" x="431.25" y="100" width="32.25" height="80" fill="#4169e1" stroke="transparent" stroke-width="0"></rect><rect type="rect" x="400" y="100" width="32.25" height="80" fill="#4169e1" stroke="transparent" stroke-width="0"></rect><rect type="rect" x="400" y="100" width="250" height="80" stroke="black" stroke-width="5" fill="transparent"></rect><rect type="rect" x="10" y="10" width="680" height="480" fill="none" stroke="gray" stroke-width="7"></rect><path type="path" x="245" y="250" d="M 245 250 l 210 0" fill="transparent" stroke="black" stroke-width="6" stroke-dasharray="10,10"></path><polyline type="polyline" x="445" y="250" points="445,250,445,260,465,250,445,240,445,250" fill="black"></polyline></svg>