<svg id="svg-tdp" version="1.1" xmlns="http://www.w3.org/2000/svg" xmlns:xlink="http://www.w3.org/1999/xlink" viewBox="0 0 700 500" width="700" height="500">
    <defs>
        <pattern id="Pattern-Indirect" width="7" height="7" patternUnits="userSpaceOnUse">
            <rect x="0" y="0" width="10" height="100" fill="#add8e6"></rect>
            <line x1="4" y1="0" x2="4" y2="7" stroke="#4169e1" stroke-width="2"></line>
            <line x1="0" y1="4" x2="7" y2="4" stroke="#4169e1" stroke-width="2"></line>
        </pattern>
    </defs><line type="line" x="100" y="450" points="0,0,150,0" stroke="black" stroke-width="5" fill="none" x1="100" y1="450" x2="250" y2="450"></line><path type="path" x="100" y="450" d="M 100 450 a 75 160 0 0 1 150 0" stroke="black" stroke-width="5" fill="none"></path><path type="path" x="140" y="330" d="M 140 330 c 0 0 -80 -5 -70 -150" stroke="black" stroke-width="5" fill="none"></path><path type="path" x="210" y="330" d="M 210 330 c 0 0 80 5 70 -150" stroke="black" stroke-width="5" fill="none"></path><circle type="circle" x="175" y="260" r="40" stroke="black" stroke-width="5" fill="white" cx="175" cy="260"></circle><path type="path" x="215" y="260" d="M 215 260 a 41 41 0 0  0, -41 -41 l 0 41" fill="#4169e1"></path><path type="path" x="215" y="260" d="M 215 260 a 41 41 0 0  1, -41 41 l 0 -41" fill="#4169e1"></path><path type="path" x="135" y="260" d="M 135 260 a 41 41 0 0  0, 41  41 l 0 -41" fill="#4169e1"></path><path type="path" x="135" y="260" d="M 135 260 a 41 41 0 0  1, 41 -41 l 0 41" fill="#4169e1"></path><circle type="circle" x="175" y="260" r="40" stroke="black" stroke-width="5" fill="transparent" cx="175" cy="260"></circle><rect type="rect" x="450" y="300" width="150" height="150" stroke="black" stroke-width="5" fill="none"></rect><path type="path" x="485" y="330" d="M 485 330 l -70 0 l 0 -150" stroke="black" stroke-width="5" fill="none"></path><path type="path" x="560" y="330" d="M 560 330 l 70 0 l 0 -150" stroke="black" stroke-width="5" fill="none"></path><rect type="rect" x="525" y="222" width="41" height="41" fill="#4169e1"></rect><rect type="rect" x="525" y="260" width="41" height="41" fill="#4169e1"></rect><rect type="rect" x="487" y="260" width="41" height="41" fill="#4169e1"></rect><rect type="rect" x="487" y="222" width="41" height="41" fill="#4169e1"></rect><rect type="rect" x="485" y="220" width="80" height="80" stroke="black" stroke-width="5" fill="none"></rect><rect type="rect" x="10" y="10" width="680" height="480" fill="none" stroke="gray" stroke-width="7"></rect><path type="path" x="245" y="250" d="M 245 250 l 210 0" fill="transparent" stroke="black" stroke-width="6" stroke-dasharray="10,10"></path></svg>